<svg width="18" height="20" viewBox="0 0 18 20" fill="none" xmlns="http://www.w3.org/2000/svg">
<path d="M2.90438 20C2.90025 20 2.89588 20 2.89152 20C1.29716 19.9916 0 18.7268 0 17.1803V2.78983C0 1.76682 0.554878 0.858117 1.48457 0.358971C2.41427 -0.139954 3.51047 -0.117667 4.41743 0.418772L16.6218 7.6469C17.4867 8.15841 18.0021 9.04703 18 10.0235C17.9979 10.9999 17.4789 11.8866 16.6112 12.395L7.7885 17.585C7.37326 17.8293 6.83032 17.704 6.57585 17.305C6.32161 16.9058 6.45206 16.3842 6.86753 16.1397L15.6914 10.9487C16.0373 10.7462 16.2355 10.4079 16.2361 10.0199C16.2371 9.63223 16.0402 9.29307 15.6967 9.08962L3.49233 1.86149C3.13772 1.65185 2.7087 1.64325 2.34491 1.83854C1.98112 2.03383 1.76385 2.38954 1.76385 2.78983V17.1803C1.76385 17.8496 2.35203 18.3024 2.90117 18.3053C3.07525 18.3051 3.27989 18.242 3.48866 18.1195C3.90458 17.8759 4.44729 18.0021 4.70084 18.4015C4.95463 18.8009 4.82326 19.3226 4.40733 19.5662C3.92319 19.8502 3.40368 20 2.90438 20Z" fill="white"/>
</svg>
