<svg width="24" height="24" viewBox="0 0 24 24" fill="none" xmlns="http://www.w3.org/2000/svg">
<path d="M17.7064 12.2932C17.6136 12.2003 17.5034 12.1265 17.382 12.0762C17.2607 12.0259 17.1307 12 16.9994 12C16.868 12 16.738 12.0259 16.6167 12.0762C16.4953 12.1265 16.3851 12.2003 16.2924 12.2932L14.6984 13.8872C13.9594 13.6672 12.5804 13.1672 11.7064 12.2932C10.8324 11.4192 10.3324 10.0402 10.1124 9.3012L11.7064 7.7072C11.7993 7.61441 11.873 7.50421 11.9234 7.38289C11.9737 7.26158 11.9996 7.13154 11.9996 7.0002C11.9996 6.86887 11.9737 6.73882 11.9234 6.61751C11.873 6.49619 11.7993 6.38599 11.7064 6.2932L7.70636 2.2932C7.61357 2.20026 7.50337 2.12652 7.38205 2.07621C7.26074 2.0259 7.13069 2 6.99936 2C6.86802 2 6.73798 2.0259 6.61666 2.07621C6.49535 2.12652 6.38515 2.20026 6.29236 2.2932L3.58036 5.0052C3.20036 5.3852 2.98636 5.9072 2.99436 6.4402C3.01736 7.8642 3.39436 12.8102 7.29236 16.7082C11.1904 20.6062 16.1364 20.9822 17.5614 21.0062H17.5894C18.1174 21.0062 18.6164 20.7982 18.9944 20.4202L21.7064 17.7082C21.7993 17.6154 21.873 17.5052 21.9234 17.3839C21.9737 17.2626 21.9996 17.1325 21.9996 17.0012C21.9996 16.8699 21.9737 16.7398 21.9234 16.6185C21.873 16.4972 21.7993 16.387 21.7064 16.2942L17.7064 12.2932ZM17.5794 19.0052C16.3314 18.9842 12.0614 18.6492 8.70636 15.2932C5.34036 11.9272 5.01436 7.6422 4.99436 6.4192L6.99936 4.4142L9.58536 7.0002L8.29236 8.2932C8.17482 8.41065 8.0884 8.55554 8.04091 8.71477C7.99342 8.874 7.98636 9.04256 8.02036 9.2052C8.04436 9.3202 8.63136 12.0472 10.2914 13.7072C11.9514 15.3672 14.6784 15.9542 14.7934 15.9782C14.9559 16.0132 15.1246 16.0067 15.284 15.9593C15.4434 15.9119 15.5883 15.8253 15.7054 15.7072L16.9994 14.4142L19.5854 17.0002L17.5794 19.0052Z" fill="#E9E9E9"/>
</svg>
