<svg width="64" height="64" viewBox="0 0 64 64" fill="none" xmlns="http://www.w3.org/2000/svg">
<circle cx="32" cy="32" r="31.5" stroke="white"/>
<path d="M33.6 39.8628C33.6 43.2472 36.1168 46 39.2112 46C42.3056 46 44.8224 43.2472 44.8224 39.8628C44.8224 39.553 44.7792 39.2555 44.7376 38.958H44.8V21.5H48V18H43.2C42.7757 18 42.3687 18.1844 42.0686 18.5126C41.7686 18.8408 41.6 19.2859 41.6 19.75V34.3328C40.855 33.9384 40.0388 33.7315 39.2112 33.7273C37.7237 33.7286 36.2974 34.3754 35.2455 35.5257C34.1935 36.676 33.6017 38.2358 33.6 39.8628ZM16 19.75H38.4V23.25H16V19.75Z" fill="white"/>
<path d="M16 26.75H38.4V30.25H16V26.75ZM16 33.75H30.4V37.25H16V33.75ZM16 40.75H30.4V44.25H16V40.75Z" fill="white"/>
</svg>
