<svg width="18" height="18" viewBox="0 0 18 18" fill="none" xmlns="http://www.w3.org/2000/svg">
<path d="M12 16.8672C15.527 15.4921 17.999 12.5036 17.999 8.86719C17.999 5.23074 15.527 2.2423 12 0.867188V2.64497C14.387 3.87697 15.999 6.2423 15.999 8.86719C15.999 11.4921 14.387 13.8574 12 15.0894V16.8672Z" fill="white"/>
<path d="M12.25 4.43981V13.5602C13.3219 12.557 14 10.6152 14 9C14 7.38478 13.3219 5.44305 12.25 4.43981ZM1.75 13.5602H4.10988L10.5 18V0L4.10988 4.43981H1.75C0.784875 4.43981 0 5.2579 0 6.26388V11.7361C0 12.7421 0.784875 13.5602 1.75 13.5602Z" fill="white"/>
</svg>
