<svg width="28" height="32" viewBox="0 0 28 32" fill="none" xmlns="http://www.w3.org/2000/svg">
<path d="M4.51793 32C4.51149 32 4.50471 32 4.49792 32C2.01781 31.9866 0 29.9628 0 27.4885V4.46372C0 2.82691 0.863143 1.37299 2.30934 0.574354C3.75553 -0.223927 5.46074 -0.188267 6.87156 0.670035L25.8561 12.235C27.2015 13.0535 28.0032 14.4752 28 16.0376C27.9968 17.5999 27.1894 19.0185 25.8396 19.832L12.1154 28.1361C11.4695 28.5269 10.6249 28.3264 10.2291 27.688C9.83362 27.0493 10.0365 26.2147 10.6828 25.8235L24.4088 17.518C24.9468 17.1938 25.2552 16.6526 25.2562 16.0319C25.2577 15.4116 24.9515 14.8689 24.417 14.5434L5.43251 2.97838C4.8809 2.64296 4.21354 2.62919 3.64764 2.94166C3.08174 3.25412 2.74377 3.82326 2.74377 4.46372V27.4885C2.74377 28.5594 3.65871 29.2839 4.51292 29.2885C4.78373 29.2881 5.10205 29.1871 5.4268 28.9912C6.0738 28.6014 6.91801 28.8033 7.31242 29.4424C7.7072 30.0814 7.50284 30.9161 6.85584 31.3059C6.10274 31.7603 5.29461 32 4.51793 32Z" fill="#F58122"/>
</svg>
