<svg width="40" height="44" viewBox="0 0 40 44" fill="none" xmlns="http://www.w3.org/2000/svg">
<path d="M6.45418 44C6.44499 44 6.4353 44 6.4256 44C2.88259 43.9816 0 41.1989 0 37.7967V6.13762C0 3.887 1.23306 1.88786 3.29905 0.789737C5.36504 -0.307899 7.80105 -0.258867 9.81652 0.921298L36.9372 16.8232C38.8593 17.9485 40.0046 19.9035 40 22.0516C39.9954 24.1998 38.8419 26.1504 36.9138 27.2689L17.3078 38.6871C16.385 39.2245 15.1785 38.9487 14.613 38.071C14.048 37.1928 14.3379 36.0452 15.2612 35.5073L34.8697 24.0872C35.6383 23.6415 36.0788 22.8973 36.0803 22.0439C36.0824 21.1909 35.645 20.4448 34.8815 19.9972L7.76073 4.09527C6.97272 3.63408 6.01934 3.61514 5.21091 4.04478C4.40248 4.47442 3.91967 5.25699 3.91967 6.13762V37.7967C3.91967 39.2691 5.22673 40.2653 6.44703 40.2716C6.8339 40.2711 7.28864 40.1323 7.75257 39.8629C8.67685 39.3269 9.88287 39.6046 10.4463 40.4833C11.0103 41.362 10.7183 42.5096 9.79406 43.0456C8.71819 43.6704 7.56373 44 6.45418 44Z" fill="#F58122"/>
</svg>
